<?xml version="1.0" encoding="UTF-8" standalone="yes"?><svg xmlns="http://www.w3.org/2000/svg" xmlns:xlink="http://www.w3.org/1999/xlink" height="3185px" style="width:2280px;height:3185px;" version="1.1" viewBox="0 0 2280 3185" width="2280px"><defs><filter height="300%" id="f1" width="300%" x="-1" y="-1"><feGaussianBlur result="blurOut" stdDeviation="10.0"/><feColorMatrix in="blurOut" result="blurOut2" type="matrix" values="0 0 0 0 0 0 0 0 0 0 0 0 0 0 0 0 0 0 .4 0"/><feOffset dx="20.0" dy="20.0" in="blurOut2" result="blurOut3"/><feBlend in="SourceGraphic" in2="blurOut3" mode="normal"/></filter></defs><g><rect fill="#FEFECE" filter="url(#f1)" height="169.8438" rx="62.5" ry="62.5" style="stroke: #A80036; stroke-width: 7.5;" width="740" x="965" y="50"/><text fill="#000000" font-family="sans-serif" font-size="60" lengthAdjust="spacingAndGlyphs" textLength="640" x="1015" y="155.6934">curMatchlength = -1</text><rect fill="#FEFECE" filter="url(#f1)" height="169.8438" rx="62.5" ry="62.5" style="stroke: #A80036; stroke-width: 7.5;" width="780" x="945" y="319.8438"/><text fill="#000000" font-family="sans-serif" font-size="60" lengthAdjust="spacingAndGlyphs" textLength="680" x="995" y="425.5371">foundMatch = 0.0.0.0</text><rect fill="#FEFECE" filter="url(#f1)" height="169.8438" rx="62.5" ry="62.5" style="stroke: #A80036; stroke-width: 7.5;" width="580" x="1045" y="809.6875"/><text fill="#000000" font-family="sans-serif" font-size="60" lengthAdjust="spacingAndGlyphs" textLength="480" x="1095" y="915.3809">read next entry</text><rect fill="#FEFECE" filter="url(#f1)" height="169.8438" rx="62.5" ry="62.5" style="stroke: #A80036; stroke-width: 7.5;" width="1725" x="472.5" y="1079.5313"/><text fill="#000000" font-family="sans-serif" font-size="60" lengthAdjust="spacingAndGlyphs" textLength="1625" x="522.5" y="1185.2246">get matchLength between entry and searchrequest</text><polygon fill="#FEFECE" filter="url(#f1)" points="872.5,1349.375,1797.5,1349.375,1857.5,1409.375,1797.5,1469.375,872.5,1469.375,812.5,1409.375,872.5,1349.375" style="stroke: #A80036; stroke-width: 7.5;"/><text fill="#000000" font-family="sans-serif" font-size="55" lengthAdjust="spacingAndGlyphs" textLength="925" x="872.5" y="1428.4155">matchLength &gt; curMatchLength?</text><text fill="#000000" font-family="sans-serif" font-size="55" lengthAdjust="spacingAndGlyphs" textLength="100" x="712.5" y="1396.4038">yes</text><text fill="#000000" font-family="sans-serif" font-size="55" lengthAdjust="spacingAndGlyphs" textLength="70" x="1857.5" y="1396.4038">no</text><rect fill="#FEFECE" filter="url(#f1)" height="169.8438" rx="62.5" ry="62.5" style="stroke: #A80036; stroke-width: 7.5;" width="1105" x="210" y="1519.375"/><text fill="#000000" font-family="sans-serif" font-size="60" lengthAdjust="spacingAndGlyphs" textLength="1005" x="260" y="1625.0684">curMatchLength = matchLength</text><rect fill="#FEFECE" filter="url(#f1)" height="169.8438" rx="62.5" ry="62.5" style="stroke: #A80036; stroke-width: 7.5;" width="1165" x="180" y="1864.2188"/><text fill="#000000" font-family="sans-serif" font-size="60" lengthAdjust="spacingAndGlyphs" textLength="1065" x="230" y="1969.9121">foundMatch = MACadress of entry</text><polygon fill="#FEFECE" filter="url(#f1)" points="1335,2064.0625,1395,2124.0625,1335,2184.0625,1275,2124.0625,1335,2064.0625" style="stroke: #A80036; stroke-width: 7.5;"/><polygon fill="#FEFECE" filter="url(#f1)" points="1007.5,2284.0625,1662.5,2284.0625,1722.5,2344.0625,1662.5,2404.0625,1007.5,2404.0625,947.5,2344.0625,1007.5,2284.0625" style="stroke: #A80036; stroke-width: 7.5;"/><text fill="#000000" font-family="sans-serif" font-size="55" lengthAdjust="spacingAndGlyphs" textLength="655" x="1007.5" y="2363.103">curMatchLength== 32?</text><text fill="#000000" font-family="sans-serif" font-size="55" lengthAdjust="spacingAndGlyphs" textLength="100" x="847.5" y="2331.0913">yes</text><text fill="#000000" font-family="sans-serif" font-size="55" lengthAdjust="spacingAndGlyphs" textLength="70" x="1722.5" y="2331.0913">no</text><rect fill="#FEFECE" filter="url(#f1)" height="169.8438" rx="62.5" ry="62.5" style="stroke: #A80036; stroke-width: 7.5;" width="685" x="555" y="2454.0625"/><text fill="#000000" font-family="sans-serif" font-size="60" lengthAdjust="spacingAndGlyphs" textLength="585" x="605" y="2559.7559">return foundMatch</text><polygon fill="#FEFECE" filter="url(#f1)" points="1335,2653.9063,1395,2713.9063,1335,2773.9063,1275,2713.9063,1335,2653.9063" style="stroke: #A80036; stroke-width: 7.5;"/><polygon fill="#FEFECE" filter="url(#f1)" points="750,589.6875,1920,589.6875,1980,649.6875,1920,709.6875,750,709.6875,690,649.6875,750,589.6875" style="stroke: #A80036; stroke-width: 7.5;"/><text fill="#000000" font-family="sans-serif" font-size="55" lengthAdjust="spacingAndGlyphs" textLength="1170" x="750" y="668.728">PEForwardingTable still contains entries?</text><rect fill="#FEFECE" filter="url(#f1)" height="169.8438" rx="62.5" ry="62.5" style="stroke: #A80036; stroke-width: 7.5;" width="685" x="992.5" y="2983.9063"/><text fill="#000000" font-family="sans-serif" font-size="60" lengthAdjust="spacingAndGlyphs" textLength="585" x="1042.5" y="3089.5996">return foundMatch</text><line style="stroke: #A80036; stroke-width: 7.5;" x1="1335" x2="1335" y1="219.8438" y2="319.8438"/><polygon fill="#A80036" points="1315,269.8438,1335,319.8438,1355,269.8438,1335,289.8438" style="stroke: #A80036; stroke-width: 5.0;"/><line style="stroke: #A80036; stroke-width: 7.5;" x1="1335" x2="1335" y1="979.5313" y2="1079.5313"/><polygon fill="#A80036" points="1315,1029.5313,1335,1079.5313,1355,1029.5313,1335,1049.5313" style="stroke: #A80036; stroke-width: 5.0;"/><line style="stroke: #A80036; stroke-width: 7.5;" x1="762.5" x2="762.5" y1="1689.2188" y2="1864.2188"/><polygon fill="#A80036" points="742.5,1814.2188,762.5,1864.2188,782.5,1814.2188,762.5,1834.2188" style="stroke: #A80036; stroke-width: 5.0;"/><line style="stroke: #A80036; stroke-width: 7.5;" x1="812.5" x2="762.5" y1="1409.375" y2="1409.375"/><line style="stroke: #A80036; stroke-width: 7.5;" x1="762.5" x2="762.5" y1="1409.375" y2="1519.375"/><polygon fill="#A80036" points="742.5,1469.375,762.5,1519.375,782.5,1469.375,762.5,1489.375" style="stroke: #A80036; stroke-width: 5.0;"/><line style="stroke: #A80036; stroke-width: 7.5;" x1="1857.5" x2="1907.5" y1="1409.375" y2="1409.375"/><polygon fill="#A80036" points="1887.5,1716.7188,1907.5,1766.7188,1927.5,1716.7188,1907.5,1736.7188" style="stroke: #A80036; stroke-width: 7.5;"/><line style="stroke: #A80036; stroke-width: 7.5;" x1="1907.5" x2="1907.5" y1="1409.375" y2="2124.0625"/><line style="stroke: #A80036; stroke-width: 7.5;" x1="1907.5" x2="1395" y1="2124.0625" y2="2124.0625"/><polygon fill="#A80036" points="1445,2104.0625,1395,2124.0625,1445,2144.0625,1425,2124.0625" style="stroke: #A80036; stroke-width: 5.0;"/><line style="stroke: #A80036; stroke-width: 7.5;" x1="762.5" x2="762.5" y1="2034.0625" y2="2124.0625"/><line style="stroke: #A80036; stroke-width: 7.5;" x1="762.5" x2="1275" y1="2124.0625" y2="2124.0625"/><polygon fill="#A80036" points="1225,2104.0625,1275,2124.0625,1225,2144.0625,1245,2124.0625" style="stroke: #A80036; stroke-width: 5.0;"/><line style="stroke: #A80036; stroke-width: 7.5;" x1="1335" x2="1335" y1="1249.375" y2="1349.375"/><polygon fill="#A80036" points="1315,1299.375,1335,1349.375,1355,1299.375,1335,1319.375" style="stroke: #A80036; stroke-width: 5.0;"/><line style="stroke: #A80036; stroke-width: 7.5;" x1="947.5" x2="897.5" y1="2344.0625" y2="2344.0625"/><line style="stroke: #A80036; stroke-width: 7.5;" x1="897.5" x2="897.5" y1="2344.0625" y2="2454.0625"/><polygon fill="#A80036" points="877.5,2404.0625,897.5,2454.0625,917.5,2404.0625,897.5,2424.0625" style="stroke: #A80036; stroke-width: 5.0;"/><line style="stroke: #A80036; stroke-width: 7.5;" x1="1722.5" x2="1772.5" y1="2344.0625" y2="2344.0625"/><polygon fill="#A80036" points="1752.5,2478.9844,1772.5,2528.9844,1792.5,2478.9844,1772.5,2498.9844" style="stroke: #A80036; stroke-width: 7.5;"/><line style="stroke: #A80036; stroke-width: 7.5;" x1="1772.5" x2="1772.5" y1="2344.0625" y2="2713.9063"/><line style="stroke: #A80036; stroke-width: 7.5;" x1="1772.5" x2="1395" y1="2713.9063" y2="2713.9063"/><polygon fill="#A80036" points="1445,2693.9063,1395,2713.9063,1445,2733.9063,1425,2713.9063" style="stroke: #A80036; stroke-width: 5.0;"/><line style="stroke: #A80036; stroke-width: 7.5;" x1="897.5" x2="897.5" y1="2623.9063" y2="2713.9063"/><line style="stroke: #A80036; stroke-width: 7.5;" x1="897.5" x2="1275" y1="2713.9063" y2="2713.9063"/><polygon fill="#A80036" points="1225,2693.9063,1275,2713.9063,1225,2733.9063,1245,2713.9063" style="stroke: #A80036; stroke-width: 5.0;"/><line style="stroke: #A80036; stroke-width: 7.5;" x1="1335" x2="1335" y1="2184.0625" y2="2284.0625"/><polygon fill="#A80036" points="1315,2234.0625,1335,2284.0625,1355,2234.0625,1335,2254.0625" style="stroke: #A80036; stroke-width: 5.0;"/><line style="stroke: #A80036; stroke-width: 7.5;" x1="1335" x2="1335" y1="709.6875" y2="809.6875"/><polygon fill="#A80036" points="1315,759.6875,1335,809.6875,1355,759.6875,1335,779.6875" style="stroke: #A80036; stroke-width: 5.0;"/><line style="stroke: #A80036; stroke-width: 7.5;" x1="1335" x2="1335" y1="2773.9063" y2="2823.9063"/><line style="stroke: #A80036; stroke-width: 7.5;" x1="1335" x2="2257.5" y1="2823.9063" y2="2823.9063"/><polygon fill="#A80036" points="2237.5,1744.2969,2257.5,1694.2969,2277.5,1744.2969,2257.5,1724.2969" style="stroke: #A80036; stroke-width: 7.5;"/><line style="stroke: #A80036; stroke-width: 7.5;" x1="2257.5" x2="2257.5" y1="649.6875" y2="2823.9063"/><line style="stroke: #A80036; stroke-width: 7.5;" x1="2257.5" x2="1980" y1="649.6875" y2="649.6875"/><polygon fill="#A80036" points="2030,629.6875,1980,649.6875,2030,669.6875,2010,649.6875" style="stroke: #A80036; stroke-width: 5.0;"/><line style="stroke: #A80036; stroke-width: 7.5;" x1="690" x2="70" y1="649.6875" y2="649.6875"/><polygon fill="#A80036" points="50,1674.2969,70,1724.2969,90,1674.2969,70,1694.2969" style="stroke: #A80036; stroke-width: 7.5;"/><line style="stroke: #A80036; stroke-width: 7.5;" x1="70" x2="70" y1="649.6875" y2="2883.9063"/><line style="stroke: #A80036; stroke-width: 7.5;" x1="70" x2="1335" y1="2883.9063" y2="2883.9063"/><line style="stroke: #A80036; stroke-width: 7.5;" x1="1335" x2="1335" y1="2883.9063" y2="2983.9063"/><polygon fill="#A80036" points="1315,2933.9063,1335,2983.9063,1355,2933.9063,1335,2953.9063" style="stroke: #A80036; stroke-width: 5.0;"/><line style="stroke: #A80036; stroke-width: 7.5;" x1="1335" x2="1335" y1="489.6875" y2="589.6875"/><polygon fill="#A80036" points="1315,539.6875,1335,589.6875,1355,539.6875,1335,559.6875" style="stroke: #A80036; stroke-width: 5.0;"/></g></svg>