<?xml version="1.0" encoding="UTF-8" standalone="yes"?><svg xmlns="http://www.w3.org/2000/svg" xmlns:xlink="http://www.w3.org/1999/xlink" height="608px" style="width:922px;height:608px;" version="1.1" viewBox="0 0 922 608" width="922px"><defs><filter height="300%" id="f1" width="300%" x="-1" y="-1"><feGaussianBlur result="blurOut" stdDeviation="2.0"/><feColorMatrix in="blurOut" result="blurOut2" type="matrix" values="0 0 0 0 0 0 0 0 0 0 0 0 0 0 0 0 0 0 .4 0"/><feOffset dx="4.0" dy="4.0" in="blurOut2" result="blurOut3"/><feBlend in="SourceGraphic" in2="blurOut3" mode="normal"/></filter></defs><g><rect fill="#FFFFFF" filter="url(#f1)" height="100.3984" style="stroke: #A80036; stroke-width: 1.0;" width="10" x="305.5" y="175.5625"/><rect fill="#FFFFFF" filter="url(#f1)" height="239.0625" style="stroke: #A80036; stroke-width: 1.0;" width="10" x="818.5" y="275.9609"/><line style="stroke: #A80036; stroke-width: 1.0; stroke-dasharray: 5.0,5.0;" x1="31" x2="31" y1="86.2969" y2="524.0234"/><line style="stroke: #A80036; stroke-width: 1.0; stroke-dasharray: 5.0,5.0;" x1="193" x2="193" y1="86.2969" y2="524.0234"/><line style="stroke: #A80036; stroke-width: 1.0; stroke-dasharray: 5.0,5.0;" x1="310" x2="310" y1="86.2969" y2="524.0234"/><line style="stroke: #A80036; stroke-width: 1.0; stroke-dasharray: 5.0,5.0;" x1="523.5" x2="523.5" y1="86.2969" y2="524.0234"/><line style="stroke: #A80036; stroke-width: 1.0; stroke-dasharray: 5.0,5.0;" x1="685" x2="685" y1="86.2969" y2="524.0234"/><line style="stroke: #A80036; stroke-width: 1.0; stroke-dasharray: 5.0,5.0;" x1="823" x2="823" y1="86.2969" y2="524.0234"/><text fill="#000000" font-family="sans-serif" font-size="14" lengthAdjust="spacingAndGlyphs" textLength="40" x="8" y="82.9951">DPDK</text><ellipse cx="31" cy="54" fill="#FEFECE" filter="url(#f1)" rx="12" ry="12" style="stroke: #A80036; stroke-width: 2.0;"/><line style="stroke: #A80036; stroke-width: 2.0;" x1="19" x2="43" y1="68" y2="68"/><text fill="#000000" font-family="sans-serif" font-size="14" lengthAdjust="spacingAndGlyphs" textLength="40" x="8" y="536.0186">DPDK</text><ellipse cx="31" cy="555.3203" fill="#FEFECE" filter="url(#f1)" rx="12" ry="12" style="stroke: #A80036; stroke-width: 2.0;"/><line style="stroke: #A80036; stroke-width: 2.0;" x1="19" x2="43" y1="569.3203" y2="569.3203"/><text fill="#000000" font-family="sans-serif" font-size="14" lengthAdjust="spacingAndGlyphs" textLength="142" x="119" y="82.9951">Network_Abstraction</text><ellipse cx="193" cy="13" fill="#FEFECE" filter="url(#f1)" rx="8" ry="8" style="stroke: #A80036; stroke-width: 2.0;"/><path d="M193,21 L193,48 M180,29 L206,29 M193,48 L180,63 M193,48 L206,63 " fill="#FEFECE" filter="url(#f1)" style="stroke: #A80036; stroke-width: 2.0;"/><text fill="#000000" font-family="sans-serif" font-size="14" lengthAdjust="spacingAndGlyphs" textLength="142" x="119" y="536.0186">Network_Abstraction</text><ellipse cx="193" cy="549.3203" fill="#FEFECE" filter="url(#f1)" rx="8" ry="8" style="stroke: #A80036; stroke-width: 2.0;"/><path d="M193,557.3203 L193,584.3203 M180,565.3203 L206,565.3203 M193,584.3203 L180,599.3203 M193,584.3203 L206,599.3203 " fill="#FEFECE" filter="url(#f1)" style="stroke: #A80036; stroke-width: 2.0;"/><text fill="#000000" font-family="sans-serif" font-size="14" lengthAdjust="spacingAndGlyphs" textLength="61" x="277" y="82.9951">Dispatch</text><ellipse cx="310.5" cy="54" fill="#FEFECE" filter="url(#f1)" rx="12" ry="12" style="stroke: #A80036; stroke-width: 2.0;"/><line style="stroke: #A80036; stroke-width: 2.0;" x1="298.5" x2="322.5" y1="68" y2="68"/><text fill="#000000" font-family="sans-serif" font-size="14" lengthAdjust="spacingAndGlyphs" textLength="61" x="277" y="536.0186">Dispatch</text><ellipse cx="310.5" cy="555.3203" fill="#FEFECE" filter="url(#f1)" rx="12" ry="12" style="stroke: #A80036; stroke-width: 2.0;"/><line style="stroke: #A80036; stroke-width: 2.0;" x1="298.5" x2="322.5" y1="569.3203" y2="569.3203"/><text fill="#000000" font-family="sans-serif" font-size="14" lengthAdjust="spacingAndGlyphs" textLength="76" x="482.5" y="82.9951">Forwarding</text><ellipse cx="523.5" cy="54" fill="#FEFECE" filter="url(#f1)" rx="12" ry="12" style="stroke: #A80036; stroke-width: 2.0;"/><line style="stroke: #A80036; stroke-width: 2.0;" x1="511.5" x2="535.5" y1="68" y2="68"/><text fill="#000000" font-family="sans-serif" font-size="14" lengthAdjust="spacingAndGlyphs" textLength="76" x="482.5" y="536.0186">Forwarding</text><ellipse cx="523.5" cy="555.3203" fill="#FEFECE" filter="url(#f1)" rx="12" ry="12" style="stroke: #A80036; stroke-width: 2.0;"/><line style="stroke: #A80036; stroke-width: 2.0;" x1="511.5" x2="535.5" y1="569.3203" y2="569.3203"/><text fill="#000000" font-family="sans-serif" font-size="14" lengthAdjust="spacingAndGlyphs" textLength="27" x="669" y="82.9951">AES</text><ellipse cx="685.5" cy="54" fill="#FEFECE" filter="url(#f1)" rx="12" ry="12" style="stroke: #A80036; stroke-width: 2.0;"/><line style="stroke: #A80036; stroke-width: 2.0;" x1="673.5" x2="697.5" y1="68" y2="68"/><text fill="#000000" font-family="sans-serif" font-size="14" lengthAdjust="spacingAndGlyphs" textLength="27" x="669" y="536.0186">AES</text><ellipse cx="685.5" cy="555.3203" fill="#FEFECE" filter="url(#f1)" rx="12" ry="12" style="stroke: #A80036; stroke-width: 2.0;"/><line style="stroke: #A80036; stroke-width: 2.0;" x1="673.5" x2="697.5" y1="569.3203" y2="569.3203"/><text fill="#000000" font-family="sans-serif" font-size="14" lengthAdjust="spacingAndGlyphs" textLength="139" x="751" y="82.9951">Control_Packet_Hub</text><ellipse cx="823.5" cy="54" fill="#FEFECE" filter="url(#f1)" rx="12" ry="12" style="stroke: #A80036; stroke-width: 2.0;"/><line style="stroke: #A80036; stroke-width: 2.0;" x1="811.5" x2="835.5" y1="68" y2="68"/><text fill="#000000" font-family="sans-serif" font-size="14" lengthAdjust="spacingAndGlyphs" textLength="139" x="751" y="536.0186">Control_Packet_Hub</text><ellipse cx="823.5" cy="555.3203" fill="#FEFECE" filter="url(#f1)" rx="12" ry="12" style="stroke: #A80036; stroke-width: 2.0;"/><line style="stroke: #A80036; stroke-width: 2.0;" x1="811.5" x2="835.5" y1="569.3203" y2="569.3203"/><rect fill="#FFFFFF" filter="url(#f1)" height="100.3984" style="stroke: #A80036; stroke-width: 1.0;" width="10" x="305.5" y="175.5625"/><rect fill="#FFFFFF" filter="url(#f1)" height="239.0625" style="stroke: #A80036; stroke-width: 1.0;" width="10" x="818.5" y="275.9609"/><polygon fill="#A80036" points="42,113.2969,32,117.2969,42,121.2969,38,117.2969" style="stroke: #A80036; stroke-width: 1.0;"/><line style="stroke: #A80036; stroke-width: 1.0; stroke-dasharray: 2.0,2.0;" x1="36" x2="192" y1="117.2969" y2="117.2969"/><text fill="#000000" font-family="sans-serif" font-size="13" lengthAdjust="spacingAndGlyphs" textLength="69" x="48" y="112.3638">pull packet</text><polygon fill="#A80036" points="181,142.4297,191,146.4297,181,150.4297,185,146.4297" style="stroke: #A80036; stroke-width: 1.0;"/><line style="stroke: #A80036; stroke-width: 1.0;" x1="31" x2="187" y1="146.4297" y2="146.4297"/><text fill="#000000" font-family="sans-serif" font-size="13" lengthAdjust="spacingAndGlyphs" textLength="66" x="38" y="141.4966">encPacket</text><polygon fill="#A80036" points="293.5,171.5625,303.5,175.5625,293.5,179.5625,297.5,175.5625" style="stroke: #A80036; stroke-width: 1.0;"/><line style="stroke: #A80036; stroke-width: 1.0;" x1="193" x2="299.5" y1="175.5625" y2="175.5625"/><text fill="#000000" font-family="sans-serif" font-size="13" lengthAdjust="spacingAndGlyphs" textLength="66" x="200" y="170.6294">encPacket</text><line style="stroke: #A80036; stroke-width: 1.0;" x1="315.5" x2="357.5" y1="204.8281" y2="204.8281"/><line style="stroke: #A80036; stroke-width: 1.0;" x1="357.5" x2="357.5" y1="204.8281" y2="217.8281"/><line style="stroke: #A80036; stroke-width: 1.0;" x1="316.5" x2="357.5" y1="217.8281" y2="217.8281"/><polygon fill="#A80036" points="326.5,213.8281,316.5,217.8281,326.5,221.8281,322.5,217.8281" style="stroke: #A80036; stroke-width: 1.0;"/><text fill="#000000" font-family="sans-serif" font-size="13" lengthAdjust="spacingAndGlyphs" textLength="189" x="322.5" y="199.7622">EncPacket is KeyMgmPacket?</text><polygon fill="#A80036" points="811.5,242.8281,821.5,246.8281,811.5,250.8281,815.5,246.8281" style="stroke: #A80036; stroke-width: 1.0;"/><line style="stroke: #A80036; stroke-width: 1.0;" x1="315.5" x2="817.5" y1="246.8281" y2="246.8281"/><text fill="#000000" font-family="sans-serif" font-size="13" lengthAdjust="spacingAndGlyphs" textLength="98" x="322.5" y="241.895">KeyMgmPacket</text><polygon fill="#A80036" points="511.5,271.9609,521.5,275.9609,511.5,279.9609,515.5,275.9609" style="stroke: #A80036; stroke-width: 1.0;"/><line style="stroke: #A80036; stroke-width: 1.0;" x1="310.5" x2="517.5" y1="275.9609" y2="275.9609"/><text fill="#000000" font-family="sans-serif" font-size="13" lengthAdjust="spacingAndGlyphs" textLength="66" x="317.5" y="271.0278">encPacket</text><line style="stroke: #A80036; stroke-width: 1.0;" x1="828.5" x2="870.5" y1="305.2266" y2="305.2266"/><line style="stroke: #A80036; stroke-width: 1.0;" x1="870.5" x2="870.5" y1="305.2266" y2="318.2266"/><line style="stroke: #A80036; stroke-width: 1.0;" x1="829.5" x2="870.5" y1="318.2266" y2="318.2266"/><polygon fill="#A80036" points="839.5,314.2266,829.5,318.2266,839.5,322.2266,835.5,318.2266" style="stroke: #A80036; stroke-width: 1.0;"/><text fill="#000000" font-family="sans-serif" font-size="13" lengthAdjust="spacingAndGlyphs" textLength="86" x="835.5" y="300.1606">Is Key active?</text><polygon fill="#A80036" points="673.5,343.2266,683.5,347.2266,673.5,351.2266,677.5,347.2266" style="stroke: #A80036; stroke-width: 1.0;"/><line style="stroke: #A80036; stroke-width: 1.0;" x1="523.5" x2="679.5" y1="347.2266" y2="347.2266"/><text fill="#000000" font-family="sans-serif" font-size="13" lengthAdjust="spacingAndGlyphs" textLength="97" x="530.5" y="342.2935">encDataPacket</text><line style="stroke: #A80036; stroke-width: 1.0;" x1="683.5" x2="673.5" y1="376.3594" y2="372.3594"/><line style="stroke: #A80036; stroke-width: 1.0;" x1="683.5" x2="673.5" y1="376.3594" y2="380.3594"/><line style="stroke: #A80036; stroke-width: 1.0;" x1="523.5" x2="684.5" y1="376.3594" y2="376.3594"/><text fill="#000000" font-family="sans-serif" font-size="13" lengthAdjust="spacingAndGlyphs" textLength="22" x="530.5" y="371.4263">key</text><line style="stroke: #A80036; stroke-width: 1.0;" x1="685.5" x2="727.5" y1="405.625" y2="405.625"/><line style="stroke: #A80036; stroke-width: 1.0;" x1="727.5" x2="727.5" y1="405.625" y2="418.625"/><line style="stroke: #A80036; stroke-width: 1.0;" x1="686.5" x2="727.5" y1="418.625" y2="418.625"/><polygon fill="#A80036" points="696.5,414.625,686.5,418.625,696.5,422.625,692.5,418.625" style="stroke: #A80036; stroke-width: 1.0;"/><text fill="#000000" font-family="sans-serif" font-size="13" lengthAdjust="spacingAndGlyphs" textLength="124" x="692.5" y="400.5591">decrypt dataPacket</text><polygon fill="#A80036" points="534.5,443.625,524.5,447.625,534.5,451.625,530.5,447.625" style="stroke: #A80036; stroke-width: 1.0;"/><line style="stroke: #A80036; stroke-width: 1.0;" x1="528.5" x2="684.5" y1="447.625" y2="447.625"/><text fill="#000000" font-family="sans-serif" font-size="13" lengthAdjust="spacingAndGlyphs" textLength="138" x="540.5" y="442.6919">decryptedDataPacket</text><polygon fill="#A80036" points="204,472.7578,194,476.7578,204,480.7578,200,476.7578" style="stroke: #A80036; stroke-width: 1.0;"/><line style="stroke: #A80036; stroke-width: 1.0;" x1="198" x2="522.5" y1="476.7578" y2="476.7578"/><text fill="#000000" font-family="sans-serif" font-size="13" lengthAdjust="spacingAndGlyphs" textLength="138" x="210" y="471.8247">decryptedDataPacket</text><polygon fill="#A80036" points="42,501.8906,32,505.8906,42,509.8906,38,505.8906" style="stroke: #A80036; stroke-width: 1.0;"/><line style="stroke: #A80036; stroke-width: 1.0;" x1="36" x2="192" y1="505.8906" y2="505.8906"/><text fill="#000000" font-family="sans-serif" font-size="13" lengthAdjust="spacingAndGlyphs" textLength="138" x="48" y="500.9575">decryptedDataPacket</text></g></svg>