<?xml version="1.0" encoding="UTF-8" standalone="yes"?><svg xmlns="http://www.w3.org/2000/svg" xmlns:xlink="http://www.w3.org/1999/xlink" height="423px" style="width:675px;height:423px;" version="1.1" viewBox="0 0 675 423" width="675px"><defs><filter height="300%" id="f1" width="300%" x="-1" y="-1"><feGaussianBlur result="blurOut" stdDeviation="2.0"/><feColorMatrix in="blurOut" result="blurOut2" type="matrix" values="0 0 0 0 0 0 0 0 0 0 0 0 0 0 0 0 0 0 .4 0"/><feOffset dx="4.0" dy="4.0" in="blurOut2" result="blurOut3"/><feBlend in="SourceGraphic" in2="blurOut3" mode="normal"/></filter></defs><g><line style="stroke: #A80036; stroke-width: 1.0; stroke-dasharray: 5.0,5.0;" x1="31" x2="31" y1="86.2969" y2="339.3594"/><line style="stroke: #A80036; stroke-width: 1.0; stroke-dasharray: 5.0,5.0;" x1="143" x2="143" y1="86.2969" y2="339.3594"/><line style="stroke: #A80036; stroke-width: 1.0; stroke-dasharray: 5.0,5.0;" x1="260" x2="260" y1="86.2969" y2="339.3594"/><line style="stroke: #A80036; stroke-width: 1.0; stroke-dasharray: 5.0,5.0;" x1="376" x2="376" y1="86.2969" y2="339.3594"/><line style="stroke: #A80036; stroke-width: 1.0; stroke-dasharray: 5.0,5.0;" x1="523" x2="523" y1="86.2969" y2="339.3594"/><line style="stroke: #A80036; stroke-width: 1.0; stroke-dasharray: 5.0,5.0;" x1="639" x2="639" y1="86.2969" y2="339.3594"/><text fill="#000000" font-family="sans-serif" font-size="14" lengthAdjust="spacingAndGlyphs" textLength="40" x="8" y="82.9951">DPDK</text><ellipse cx="31" cy="54" fill="#FEFECE" filter="url(#f1)" rx="12" ry="12" style="stroke: #A80036; stroke-width: 2.0;"/><line style="stroke: #A80036; stroke-width: 2.0;" x1="19" x2="43" y1="68" y2="68"/><text fill="#000000" font-family="sans-serif" font-size="14" lengthAdjust="spacingAndGlyphs" textLength="40" x="8" y="351.3545">DPDK</text><ellipse cx="31" cy="370.6563" fill="#FEFECE" filter="url(#f1)" rx="12" ry="12" style="stroke: #A80036; stroke-width: 2.0;"/><line style="stroke: #A80036; stroke-width: 2.0;" x1="19" x2="43" y1="384.6563" y2="384.6563"/><text fill="#000000" font-family="sans-serif" font-size="14" lengthAdjust="spacingAndGlyphs" textLength="142" x="69" y="82.9951">Network_Abstraction</text><ellipse cx="143" cy="13" fill="#FEFECE" filter="url(#f1)" rx="8" ry="8" style="stroke: #A80036; stroke-width: 2.0;"/><path d="M143,21 L143,48 M130,29 L156,29 M143,48 L130,63 M143,48 L156,63 " fill="#FEFECE" filter="url(#f1)" style="stroke: #A80036; stroke-width: 2.0;"/><text fill="#000000" font-family="sans-serif" font-size="14" lengthAdjust="spacingAndGlyphs" textLength="142" x="69" y="351.3545">Network_Abstraction</text><ellipse cx="143" cy="364.6563" fill="#FEFECE" filter="url(#f1)" rx="8" ry="8" style="stroke: #A80036; stroke-width: 2.0;"/><path d="M143,372.6563 L143,399.6563 M130,380.6563 L156,380.6563 M143,399.6563 L130,414.6563 M143,399.6563 L156,414.6563 " fill="#FEFECE" filter="url(#f1)" style="stroke: #A80036; stroke-width: 2.0;"/><text fill="#000000" font-family="sans-serif" font-size="14" lengthAdjust="spacingAndGlyphs" textLength="61" x="227" y="82.9951">Dispatch</text><ellipse cx="260.5" cy="54" fill="#FEFECE" filter="url(#f1)" rx="12" ry="12" style="stroke: #A80036; stroke-width: 2.0;"/><line style="stroke: #A80036; stroke-width: 2.0;" x1="248.5" x2="272.5" y1="68" y2="68"/><text fill="#000000" font-family="sans-serif" font-size="14" lengthAdjust="spacingAndGlyphs" textLength="61" x="227" y="351.3545">Dispatch</text><ellipse cx="260.5" cy="370.6563" fill="#FEFECE" filter="url(#f1)" rx="12" ry="12" style="stroke: #A80036; stroke-width: 2.0;"/><line style="stroke: #A80036; stroke-width: 2.0;" x1="248.5" x2="272.5" y1="384.6563" y2="384.6563"/><text fill="#000000" font-family="sans-serif" font-size="14" lengthAdjust="spacingAndGlyphs" textLength="139" x="304" y="82.9951">Control_Packet_Hub</text><ellipse cx="376.5" cy="54" fill="#FEFECE" filter="url(#f1)" rx="12" ry="12" style="stroke: #A80036; stroke-width: 2.0;"/><line style="stroke: #A80036; stroke-width: 2.0;" x1="364.5" x2="388.5" y1="68" y2="68"/><text fill="#000000" font-family="sans-serif" font-size="14" lengthAdjust="spacingAndGlyphs" textLength="139" x="304" y="351.3545">Control_Packet_Hub</text><ellipse cx="376.5" cy="370.6563" fill="#FEFECE" filter="url(#f1)" rx="12" ry="12" style="stroke: #A80036; stroke-width: 2.0;"/><line style="stroke: #A80036; stroke-width: 2.0;" x1="364.5" x2="388.5" y1="384.6563" y2="384.6563"/><text fill="#000000" font-family="sans-serif" font-size="14" lengthAdjust="spacingAndGlyphs" textLength="123" x="459" y="82.9951">Key_Management</text><path d="M505.5,38 C505.5,28 523.5,28 523.5,28 C523.5,28 541.5,28 541.5,38 L541.5,60 C541.5,70 523.5,70 523.5,70 C523.5,70 505.5,70 505.5,60 L505.5,38 " fill="#FEFECE" filter="url(#f1)" style="stroke: #A80036; stroke-width: 1.5;"/><path d="M505.5,38 C505.5,48 523.5,48 523.5,48 C523.5,48 541.5,48 541.5,38 " fill="none" style="stroke: #A80036; stroke-width: 1.5;"/><text fill="#000000" font-family="sans-serif" font-size="14" lengthAdjust="spacingAndGlyphs" textLength="123" x="459" y="351.3545">Key_Management</text><path d="M505.5,364.6563 C505.5,354.6563 523.5,354.6563 523.5,354.6563 C523.5,354.6563 541.5,354.6563 541.5,364.6563 L541.5,386.6563 C541.5,396.6563 523.5,396.6563 523.5,396.6563 C523.5,396.6563 505.5,396.6563 505.5,386.6563 L505.5,364.6563 " fill="#FEFECE" filter="url(#f1)" style="stroke: #A80036; stroke-width: 1.5;"/><path d="M505.5,364.6563 C505.5,374.6563 523.5,374.6563 523.5,374.6563 C523.5,374.6563 541.5,374.6563 541.5,364.6563 " fill="none" style="stroke: #A80036; stroke-width: 1.5;"/><text fill="#000000" font-family="sans-serif" font-size="14" lengthAdjust="spacingAndGlyphs" textLength="76" x="598" y="82.9951">Forwarding</text><ellipse cx="639" cy="54" fill="#FEFECE" filter="url(#f1)" rx="12" ry="12" style="stroke: #A80036; stroke-width: 2.0;"/><line style="stroke: #A80036; stroke-width: 2.0;" x1="627" x2="651" y1="68" y2="68"/><text fill="#000000" font-family="sans-serif" font-size="14" lengthAdjust="spacingAndGlyphs" textLength="76" x="598" y="351.3545">Forwarding</text><ellipse cx="639" cy="370.6563" fill="#FEFECE" filter="url(#f1)" rx="12" ry="12" style="stroke: #A80036; stroke-width: 2.0;"/><line style="stroke: #A80036; stroke-width: 2.0;" x1="627" x2="651" y1="384.6563" y2="384.6563"/><polygon fill="#A80036" points="42,113.2969,32,117.2969,42,121.2969,38,117.2969" style="stroke: #A80036; stroke-width: 1.0;"/><line style="stroke: #A80036; stroke-width: 1.0; stroke-dasharray: 2.0,2.0;" x1="36" x2="142" y1="117.2969" y2="117.2969"/><text fill="#000000" font-family="sans-serif" font-size="13" lengthAdjust="spacingAndGlyphs" textLength="69" x="48" y="112.3638">pull packet</text><polygon fill="#A80036" points="131,142.4297,141,146.4297,131,150.4297,135,146.4297" style="stroke: #A80036; stroke-width: 1.0;"/><line style="stroke: #A80036; stroke-width: 1.0;" x1="31" x2="137" y1="146.4297" y2="146.4297"/><text fill="#000000" font-family="sans-serif" font-size="13" lengthAdjust="spacingAndGlyphs" textLength="43" x="38" y="141.4966">packet</text><polygon fill="#A80036" points="248.5,171.5625,258.5,175.5625,248.5,179.5625,252.5,175.5625" style="stroke: #A80036; stroke-width: 1.0;"/><line style="stroke: #A80036; stroke-width: 1.0;" x1="143" x2="254.5" y1="175.5625" y2="175.5625"/><text fill="#000000" font-family="sans-serif" font-size="13" lengthAdjust="spacingAndGlyphs" textLength="43" x="150" y="170.6294">packet</text><polygon fill="#A80036" points="364.5,200.6953,374.5,204.6953,364.5,208.6953,368.5,204.6953" style="stroke: #A80036; stroke-width: 1.0;"/><line style="stroke: #A80036; stroke-width: 1.0;" x1="260.5" x2="370.5" y1="204.6953" y2="204.6953"/><text fill="#000000" font-family="sans-serif" font-size="13" lengthAdjust="spacingAndGlyphs" textLength="65" x="267.5" y="199.7622">keyPacket</text><line style="stroke: #A80036; stroke-width: 1.0;" x1="521.5" x2="511.5" y1="233.8281" y2="229.8281"/><line style="stroke: #A80036; stroke-width: 1.0;" x1="521.5" x2="511.5" y1="233.8281" y2="237.8281"/><line style="stroke: #A80036; stroke-width: 1.0;" x1="376.5" x2="522.5" y1="233.8281" y2="233.8281"/><text fill="#000000" font-family="sans-serif" font-size="13" lengthAdjust="spacingAndGlyphs" textLength="119" x="383.5" y="228.895">process keyPacket</text><polygon fill="#A80036" points="627,258.9609,637,262.9609,627,266.9609,631,262.9609" style="stroke: #A80036; stroke-width: 1.0;"/><line style="stroke: #A80036; stroke-width: 1.0;" x1="523.5" x2="633" y1="262.9609" y2="262.9609"/><text fill="#000000" font-family="sans-serif" font-size="13" lengthAdjust="spacingAndGlyphs" textLength="88" x="530.5" y="258.0278">keyAckPacket</text><polygon fill="#A80036" points="154,288.0938,144,292.0938,154,296.0938,150,292.0938" style="stroke: #A80036; stroke-width: 1.0;"/><line style="stroke: #A80036; stroke-width: 1.0;" x1="148" x2="638" y1="292.0938" y2="292.0938"/><text fill="#000000" font-family="sans-serif" font-size="13" lengthAdjust="spacingAndGlyphs" textLength="88" x="160" y="287.1606">keyAckPacket</text><polygon fill="#A80036" points="42,317.2266,32,321.2266,42,325.2266,38,321.2266" style="stroke: #A80036; stroke-width: 1.0;"/><line style="stroke: #A80036; stroke-width: 1.0;" x1="36" x2="142" y1="321.2266" y2="321.2266"/><text fill="#000000" font-family="sans-serif" font-size="13" lengthAdjust="spacingAndGlyphs" textLength="88" x="48" y="316.2935">keyAckPacket</text></g></svg>