<?xml version="1.0" encoding="UTF-8" standalone="yes"?><svg xmlns="http://www.w3.org/2000/svg" xmlns:xlink="http://www.w3.org/1999/xlink" height="4320px" style="width:1695px;height:4320px;" version="1.1" viewBox="0 0 1695 4320" width="1695px"><defs><filter height="300%" id="f1" width="300%" x="-1" y="-1"><feGaussianBlur result="blurOut" stdDeviation="10.0"/><feColorMatrix in="blurOut" result="blurOut2" type="matrix" values="0 0 0 0 0 0 0 0 0 0 0 0 0 0 0 0 0 0 .4 0"/><feOffset dx="20.0" dy="20.0" in="blurOut2" result="blurOut3"/><feBlend in="SourceGraphic" in2="blurOut3" mode="normal"/></filter></defs><g><rect fill="#FEFECE" filter="url(#f1)" height="169.8438" rx="62.5" ry="62.5" style="stroke: #A80036; stroke-width: 7.5;" width="265" x="655" y="270"/><text fill="#000000" font-family="sans-serif" font-size="60" lengthAdjust="spacingAndGlyphs" textLength="165" x="705" y="375.6934">DPDK</text><rect fill="#FEFECE" filter="url(#f1)" height="169.8438" rx="62.5" ry="62.5" style="stroke: #A80036; stroke-width: 7.5;" width="795" x="390" y="646.8384"/><text fill="#000000" font-family="sans-serif" font-size="60" lengthAdjust="spacingAndGlyphs" textLength="695" x="440" y="752.5317">Network Abstract (NA)</text><rect fill="#FEFECE" filter="url(#f1)" height="169.8438" rx="62.5" ry="62.5" style="stroke: #A80036; stroke-width: 7.5;" width="440" x="567.5" y="1023.6768"/><text fill="#000000" font-family="sans-serif" font-size="60" lengthAdjust="spacingAndGlyphs" textLength="340" x="617.5" y="1129.3701">Dispatcher</text><polygon fill="#FEFECE" filter="url(#f1)" points="530,1293.5205,1045,1293.5205,1105,1353.5205,1045,1413.5205,530,1413.5205,470,1353.5205,530,1293.5205" style="stroke: #A80036; stroke-width: 7.5;"/><text fill="#000000" font-family="sans-serif" font-size="55" lengthAdjust="spacingAndGlyphs" textLength="515" x="530" y="1372.561">is keyMgmPacket?</text><text fill="#000000" font-family="sans-serif" font-size="55" lengthAdjust="spacingAndGlyphs" textLength="100" x="370" y="1340.5493">yes</text><rect fill="#FEFECE" filter="url(#f1)" height="169.8438" rx="62.5" ry="62.5" style="stroke: #A80036; stroke-width: 7.5;" width="705" x="50" y="1463.5205"/><text fill="#000000" font-family="sans-serif" font-size="60" lengthAdjust="spacingAndGlyphs" textLength="605" x="100" y="1569.2139">Control Packet Hub</text><rect fill="#FEFECE" filter="url(#f1)" height="169.8438" rx="62.5" ry="62.5" style="stroke: #A80036; stroke-width: 7.5;" width="635" x="85" y="1862.876"/><text fill="#000000" font-family="sans-serif" font-size="60" lengthAdjust="spacingAndGlyphs" textLength="535" x="135" y="1968.5693">Key Management</text><polygon fill="#FEFECE" filter="url(#f1)" points="787.5,2062.7197,847.5,2122.7197,787.5,2182.7197,727.5,2122.7197,787.5,2062.7197" style="stroke: #A80036; stroke-width: 7.5;"/><text fill="#000000" font-family="sans-serif" font-size="55" lengthAdjust="spacingAndGlyphs" textLength="70" x="847.5" y="2109.7485">no</text><rect fill="#FEFECE" filter="url(#f1)" height="169.8438" rx="62.5" ry="62.5" style="stroke: #A80036; stroke-width: 7.5;" width="445" x="565" y="2389.7144"/><text fill="#000000" font-family="sans-serif" font-size="60" lengthAdjust="spacingAndGlyphs" textLength="345" x="615" y="2495.4077">Forwarding</text><rect fill="#FEFECE" filter="url(#f1)" height="169.8438" rx="62.5" ry="62.5" style="stroke: #A80036; stroke-width: 7.5;" width="300" x="637.5" y="2766.5527"/><text fill="#000000" font-family="sans-serif" font-size="60" lengthAdjust="spacingAndGlyphs" textLength="200" x="687.5" y="2872.2461">Crypto</text><rect fill="#FEFECE" filter="url(#f1)" height="169.8438" rx="62.5" ry="62.5" style="stroke: #A80036; stroke-width: 7.5;" width="300" x="637.5" y="3143.3911"/><text fill="#000000" font-family="sans-serif" font-size="60" lengthAdjust="spacingAndGlyphs" textLength="200" x="687.5" y="3249.0845">Crypto</text><rect fill="#FEFECE" filter="url(#f1)" height="169.8438" rx="62.5" ry="62.5" style="stroke: #A80036; stroke-width: 7.5;" width="445" x="565" y="3520.2295"/><text fill="#000000" font-family="sans-serif" font-size="60" lengthAdjust="spacingAndGlyphs" textLength="345" x="615" y="3625.9229">Forwarding</text><rect fill="#FEFECE" filter="url(#f1)" height="169.8438" rx="62.5" ry="62.5" style="stroke: #A80036; stroke-width: 7.5;" width="265" x="655" y="3897.0679"/><text fill="#000000" font-family="sans-serif" font-size="60" lengthAdjust="spacingAndGlyphs" textLength="165" x="705" y="4002.7612">DPDK</text><polygon fill="#FEFECE" filter="url(#f1)" points="787.5,50,847.5,110,787.5,170,727.5,110,787.5,50" style="stroke: #A80036; stroke-width: 7.5;"/><polygon fill="#FEFECE" filter="url(#f1)" points="630,4166.9116,945,4166.9116,1005,4226.9116,945,4286.9116,630,4286.9116,570,4226.9116,630,4166.9116" style="stroke: #A80036; stroke-width: 7.5;"/><text fill="#000000" font-family="sans-serif" font-size="55" lengthAdjust="spacingAndGlyphs" textLength="315" x="630" y="4245.9521">still active?</text><line style="stroke: #A80036; stroke-width: 7.5;" x1="787.5" x2="787.5" y1="439.8438" y2="646.8384"/><polygon fill="#A80036" points="767.5,596.8384,787.5,646.8384,807.5,596.8384,787.5,616.8384" style="stroke: #A80036; stroke-width: 5.0;"/><text fill="#000000" font-family="sans-serif" font-size="55" lengthAdjust="spacingAndGlyphs" textLength="760" x="807.5" y="546.3672">NA pulls packet from DPDK</text><line style="stroke: #A80036; stroke-width: 7.5;" x1="787.5" x2="787.5" y1="816.6821" y2="1023.6768"/><polygon fill="#A80036" points="767.5,973.6768,787.5,1023.6768,807.5,973.6768,787.5,993.6768" style="stroke: #A80036; stroke-width: 5.0;"/><text fill="#000000" font-family="sans-serif" font-size="55" lengthAdjust="spacingAndGlyphs" textLength="345" x="807.5" y="923.2056">push packet</text><line style="stroke: #A80036; stroke-width: 7.5;" x1="402.5" x2="402.5" y1="1633.3643" y2="1862.876"/><polygon fill="#A80036" points="382.5,1812.876,402.5,1862.876,422.5,1812.876,402.5,1832.876" style="stroke: #A80036; stroke-width: 5.0;"/><text fill="#000000" font-family="sans-serif" font-size="55" lengthAdjust="spacingAndGlyphs" textLength="575" x="422.5" y="1762.4048">send keyMgmPacket</text><line style="stroke: #A80036; stroke-width: 7.5;" x1="470" x2="402.5" y1="1353.5205" y2="1353.5205"/><line style="stroke: #A80036; stroke-width: 7.5;" x1="402.5" x2="402.5" y1="1353.5205" y2="1463.5205"/><polygon fill="#A80036" points="382.5,1413.5205,402.5,1463.5205,422.5,1413.5205,402.5,1433.5205" style="stroke: #A80036; stroke-width: 5.0;"/><line style="stroke: #A80036; stroke-width: 7.5;" x1="1105" x2="1172.5" y1="1353.5205" y2="1353.5205"/><polygon fill="#A80036" points="1152.5,1683.3643,1172.5,1733.3643,1192.5,1683.3643,1172.5,1703.3643" style="stroke: #A80036; stroke-width: 7.5;"/><line style="stroke: #A80036; stroke-width: 7.5;" x1="1172.5" x2="1172.5" y1="1353.5205" y2="2122.7197"/><line style="stroke: #A80036; stroke-width: 7.5;" x1="1172.5" x2="847.5" y1="2122.7197" y2="2122.7197"/><polygon fill="#A80036" points="897.5,2102.7197,847.5,2122.7197,897.5,2142.7197,877.5,2122.7197" style="stroke: #A80036; stroke-width: 5.0;"/><line style="stroke: #A80036; stroke-width: 7.5;" x1="402.5" x2="402.5" y1="2032.7197" y2="2122.7197"/><line style="stroke: #A80036; stroke-width: 7.5;" x1="402.5" x2="727.5" y1="2122.7197" y2="2122.7197"/><polygon fill="#A80036" points="677.5,2102.7197,727.5,2122.7197,677.5,2142.7197,697.5,2122.7197" style="stroke: #A80036; stroke-width: 5.0;"/><line style="stroke: #A80036; stroke-width: 7.5;" x1="787.5" x2="787.5" y1="1193.5205" y2="1293.5205"/><polygon fill="#A80036" points="767.5,1243.5205,787.5,1293.5205,807.5,1243.5205,787.5,1263.5205" style="stroke: #A80036; stroke-width: 5.0;"/><line style="stroke: #A80036; stroke-width: 7.5;" x1="787.5" x2="787.5" y1="2182.7197" y2="2389.7144"/><polygon fill="#A80036" points="767.5,2339.7144,787.5,2389.7144,807.5,2339.7144,787.5,2359.7144" style="stroke: #A80036; stroke-width: 5.0;"/><text fill="#000000" font-family="sans-serif" font-size="55" lengthAdjust="spacingAndGlyphs" textLength="425" x="807.5" y="2289.2432">forward packet</text><line style="stroke: #A80036; stroke-width: 7.5;" x1="787.5" x2="787.5" y1="2559.5581" y2="2766.5527"/><polygon fill="#A80036" points="767.5,2716.5527,787.5,2766.5527,807.5,2716.5527,787.5,2736.5527" style="stroke: #A80036; stroke-width: 5.0;"/><text fill="#000000" font-family="sans-serif" font-size="55" lengthAdjust="spacingAndGlyphs" textLength="805" x="807.5" y="2666.0815">sends packets to encryption</text><line style="stroke: #A80036; stroke-width: 7.5;" x1="787.5" x2="787.5" y1="2936.3965" y2="3143.3911"/><polygon fill="#A80036" points="767.5,3093.3911,787.5,3143.3911,807.5,3093.3911,787.5,3113.3911" style="stroke: #A80036; stroke-width: 5.0;"/><text fill="#000000" font-family="sans-serif" font-size="55" lengthAdjust="spacingAndGlyphs" textLength="450" x="807.5" y="3042.9199">encrypts packet</text><line style="stroke: #A80036; stroke-width: 7.5;" x1="787.5" x2="787.5" y1="3313.2349" y2="3520.2295"/><polygon fill="#A80036" points="767.5,3470.2295,787.5,3520.2295,807.5,3470.2295,787.5,3490.2295" style="stroke: #A80036; stroke-width: 5.0;"/><text fill="#000000" font-family="sans-serif" font-size="55" lengthAdjust="spacingAndGlyphs" textLength="380" x="807.5" y="3419.7583">sends packet</text><line style="stroke: #A80036; stroke-width: 7.5;" x1="787.5" x2="787.5" y1="3690.0732" y2="3897.0679"/><polygon fill="#A80036" points="767.5,3847.0679,787.5,3897.0679,807.5,3847.0679,787.5,3867.0679" style="stroke: #A80036; stroke-width: 5.0;"/><text fill="#000000" font-family="sans-serif" font-size="55" lengthAdjust="spacingAndGlyphs" textLength="380" x="807.5" y="3796.5967">sends packet</text><line style="stroke: #A80036; stroke-width: 7.5;" x1="787.5" x2="787.5" y1="170" y2="270"/><polygon fill="#A80036" points="767.5,220,787.5,270,807.5,220,787.5,240" style="stroke: #A80036; stroke-width: 5.0;"/><line style="stroke: #A80036; stroke-width: 7.5;" x1="1005" x2="1672.5" y1="4226.9116" y2="4226.9116"/><polygon fill="#A80036" points="1652.5,2312.2144,1672.5,2262.2144,1692.5,2312.2144,1672.5,2292.2144" style="stroke: #A80036; stroke-width: 7.5;"/><line style="stroke: #A80036; stroke-width: 7.5;" x1="1672.5" x2="1672.5" y1="110" y2="4226.9116"/><line style="stroke: #A80036; stroke-width: 7.5;" x1="1672.5" x2="847.5" y1="110" y2="110"/><polygon fill="#A80036" points="897.5,90,847.5,110,897.5,130,877.5,110" style="stroke: #A80036; stroke-width: 5.0;"/><line style="stroke: #A80036; stroke-width: 7.5;" x1="787.5" x2="787.5" y1="4066.9116" y2="4166.9116"/><polygon fill="#A80036" points="767.5,4116.9116,787.5,4166.9116,807.5,4116.9116,787.5,4136.9116" style="stroke: #A80036; stroke-width: 5.0;"/></g></svg>