<?xml version="1.0" encoding="UTF-8" standalone="yes"?><svg xmlns="http://www.w3.org/2000/svg" xmlns:xlink="http://www.w3.org/1999/xlink" height="537px" style="width:770px;height:537px;" version="1.1" viewBox="0 0 770 537" width="770px"><defs><filter height="300%" id="f1" width="300%" x="-1" y="-1"><feGaussianBlur result="blurOut" stdDeviation="2.0"/><feColorMatrix in="blurOut" result="blurOut2" type="matrix" values="0 0 0 0 0 0 0 0 0 0 0 0 0 0 0 0 0 0 .4 0"/><feOffset dx="4.0" dy="4.0" in="blurOut2" result="blurOut3"/><feBlend in="SourceGraphic" in2="blurOut3" mode="normal"/></filter></defs><g><rect fill="#FFFFFF" filter="url(#f1)" height="71.2656" style="stroke: #A80036; stroke-width: 1.0;" width="10" x="305.5" y="175.5625"/><line style="stroke: #A80036; stroke-width: 1.0; stroke-dasharray: 5.0,5.0;" x1="31" x2="31" y1="86.2969" y2="452.7578"/><line style="stroke: #A80036; stroke-width: 1.0; stroke-dasharray: 5.0,5.0;" x1="193" x2="193" y1="86.2969" y2="452.7578"/><line style="stroke: #A80036; stroke-width: 1.0; stroke-dasharray: 5.0,5.0;" x1="310" x2="310" y1="86.2969" y2="452.7578"/><line style="stroke: #A80036; stroke-width: 1.0; stroke-dasharray: 5.0,5.0;" x1="476.5" x2="476.5" y1="86.2969" y2="452.7578"/><line style="stroke: #A80036; stroke-width: 1.0; stroke-dasharray: 5.0,5.0;" x1="638" x2="638" y1="86.2969" y2="452.7578"/><text fill="#000000" font-family="sans-serif" font-size="14" lengthAdjust="spacingAndGlyphs" textLength="40" x="8" y="82.9951">DPDK</text><ellipse cx="31" cy="54" fill="#FEFECE" filter="url(#f1)" rx="12" ry="12" style="stroke: #A80036; stroke-width: 2.0;"/><line style="stroke: #A80036; stroke-width: 2.0;" x1="19" x2="43" y1="68" y2="68"/><text fill="#000000" font-family="sans-serif" font-size="14" lengthAdjust="spacingAndGlyphs" textLength="40" x="8" y="464.7529">DPDK</text><ellipse cx="31" cy="484.0547" fill="#FEFECE" filter="url(#f1)" rx="12" ry="12" style="stroke: #A80036; stroke-width: 2.0;"/><line style="stroke: #A80036; stroke-width: 2.0;" x1="19" x2="43" y1="498.0547" y2="498.0547"/><text fill="#000000" font-family="sans-serif" font-size="14" lengthAdjust="spacingAndGlyphs" textLength="142" x="119" y="82.9951">Network_Abstraction</text><ellipse cx="193" cy="13" fill="#FEFECE" filter="url(#f1)" rx="8" ry="8" style="stroke: #A80036; stroke-width: 2.0;"/><path d="M193,21 L193,48 M180,29 L206,29 M193,48 L180,63 M193,48 L206,63 " fill="#FEFECE" filter="url(#f1)" style="stroke: #A80036; stroke-width: 2.0;"/><text fill="#000000" font-family="sans-serif" font-size="14" lengthAdjust="spacingAndGlyphs" textLength="142" x="119" y="464.7529">Network_Abstraction</text><ellipse cx="193" cy="478.0547" fill="#FEFECE" filter="url(#f1)" rx="8" ry="8" style="stroke: #A80036; stroke-width: 2.0;"/><path d="M193,486.0547 L193,513.0547 M180,494.0547 L206,494.0547 M193,513.0547 L180,528.0547 M193,513.0547 L206,528.0547 " fill="#FEFECE" filter="url(#f1)" style="stroke: #A80036; stroke-width: 2.0;"/><text fill="#000000" font-family="sans-serif" font-size="14" lengthAdjust="spacingAndGlyphs" textLength="61" x="277" y="82.9951">Dispatch</text><ellipse cx="310.5" cy="54" fill="#FEFECE" filter="url(#f1)" rx="12" ry="12" style="stroke: #A80036; stroke-width: 2.0;"/><line style="stroke: #A80036; stroke-width: 2.0;" x1="298.5" x2="322.5" y1="68" y2="68"/><text fill="#000000" font-family="sans-serif" font-size="14" lengthAdjust="spacingAndGlyphs" textLength="61" x="277" y="464.7529">Dispatch</text><ellipse cx="310.5" cy="484.0547" fill="#FEFECE" filter="url(#f1)" rx="12" ry="12" style="stroke: #A80036; stroke-width: 2.0;"/><line style="stroke: #A80036; stroke-width: 2.0;" x1="298.5" x2="322.5" y1="498.0547" y2="498.0547"/><text fill="#000000" font-family="sans-serif" font-size="14" lengthAdjust="spacingAndGlyphs" textLength="76" x="435.5" y="82.9951">Forwarding</text><ellipse cx="476.5" cy="54" fill="#FEFECE" filter="url(#f1)" rx="12" ry="12" style="stroke: #A80036; stroke-width: 2.0;"/><line style="stroke: #A80036; stroke-width: 2.0;" x1="464.5" x2="488.5" y1="68" y2="68"/><text fill="#000000" font-family="sans-serif" font-size="14" lengthAdjust="spacingAndGlyphs" textLength="76" x="435.5" y="464.7529">Forwarding</text><ellipse cx="476.5" cy="484.0547" fill="#FEFECE" filter="url(#f1)" rx="12" ry="12" style="stroke: #A80036; stroke-width: 2.0;"/><line style="stroke: #A80036; stroke-width: 2.0;" x1="464.5" x2="488.5" y1="498.0547" y2="498.0547"/><text fill="#000000" font-family="sans-serif" font-size="14" lengthAdjust="spacingAndGlyphs" textLength="27" x="622" y="82.9951">AES</text><ellipse cx="638.5" cy="54" fill="#FEFECE" filter="url(#f1)" rx="12" ry="12" style="stroke: #A80036; stroke-width: 2.0;"/><line style="stroke: #A80036; stroke-width: 2.0;" x1="626.5" x2="650.5" y1="68" y2="68"/><text fill="#000000" font-family="sans-serif" font-size="14" lengthAdjust="spacingAndGlyphs" textLength="27" x="622" y="464.7529">AES</text><ellipse cx="638.5" cy="484.0547" fill="#FEFECE" filter="url(#f1)" rx="12" ry="12" style="stroke: #A80036; stroke-width: 2.0;"/><line style="stroke: #A80036; stroke-width: 2.0;" x1="626.5" x2="650.5" y1="498.0547" y2="498.0547"/><rect fill="#FFFFFF" filter="url(#f1)" height="71.2656" style="stroke: #A80036; stroke-width: 1.0;" width="10" x="305.5" y="175.5625"/><polygon fill="#A80036" points="42,113.2969,32,117.2969,42,121.2969,38,117.2969" style="stroke: #A80036; stroke-width: 1.0;"/><line style="stroke: #A80036; stroke-width: 1.0; stroke-dasharray: 2.0,2.0;" x1="36" x2="192" y1="117.2969" y2="117.2969"/><text fill="#000000" font-family="sans-serif" font-size="13" lengthAdjust="spacingAndGlyphs" textLength="69" x="48" y="112.3638">pull Packet</text><polygon fill="#A80036" points="181,142.4297,191,146.4297,181,150.4297,185,146.4297" style="stroke: #A80036; stroke-width: 1.0;"/><line style="stroke: #A80036; stroke-width: 1.0;" x1="31" x2="187" y1="146.4297" y2="146.4297"/><text fill="#000000" font-family="sans-serif" font-size="13" lengthAdjust="spacingAndGlyphs" textLength="43" x="38" y="141.4966">Packet</text><polygon fill="#A80036" points="293.5,171.5625,303.5,175.5625,293.5,179.5625,297.5,175.5625" style="stroke: #A80036; stroke-width: 1.0;"/><line style="stroke: #A80036; stroke-width: 1.0;" x1="193" x2="299.5" y1="175.5625" y2="175.5625"/><text fill="#000000" font-family="sans-serif" font-size="13" lengthAdjust="spacingAndGlyphs" textLength="43" x="200" y="170.6294">Packet</text><line style="stroke: #A80036; stroke-width: 1.0;" x1="315.5" x2="357.5" y1="204.8281" y2="204.8281"/><line style="stroke: #A80036; stroke-width: 1.0;" x1="357.5" x2="357.5" y1="204.8281" y2="217.8281"/><line style="stroke: #A80036; stroke-width: 1.0;" x1="316.5" x2="357.5" y1="217.8281" y2="217.8281"/><polygon fill="#A80036" points="326.5,213.8281,316.5,217.8281,326.5,221.8281,322.5,217.8281" style="stroke: #A80036; stroke-width: 1.0;"/><text fill="#000000" font-family="sans-serif" font-size="13" lengthAdjust="spacingAndGlyphs" textLength="142" x="322.5" y="199.7622">Packet is DataPacket?</text><polygon fill="#A80036" points="464.5,242.8281,474.5,246.8281,464.5,250.8281,468.5,246.8281" style="stroke: #A80036; stroke-width: 1.0;"/><line style="stroke: #A80036; stroke-width: 1.0;" x1="310.5" x2="470.5" y1="246.8281" y2="246.8281"/><text fill="#000000" font-family="sans-serif" font-size="13" lengthAdjust="spacingAndGlyphs" textLength="74" x="317.5" y="241.895">DataPacket</text><polygon fill="#A80036" points="626.5,271.9609,636.5,275.9609,626.5,279.9609,630.5,275.9609" style="stroke: #A80036; stroke-width: 1.0;"/><line style="stroke: #A80036; stroke-width: 1.0;" x1="476.5" x2="632.5" y1="275.9609" y2="275.9609"/><text fill="#000000" font-family="sans-serif" font-size="13" lengthAdjust="spacingAndGlyphs" textLength="74" x="483.5" y="271.0278">DataPacket</text><line style="stroke: #A80036; stroke-width: 1.0;" x1="636.5" x2="626.5" y1="305.0938" y2="301.0938"/><line style="stroke: #A80036; stroke-width: 1.0;" x1="636.5" x2="626.5" y1="305.0938" y2="309.0938"/><line style="stroke: #A80036; stroke-width: 1.0;" x1="476.5" x2="637.5" y1="305.0938" y2="305.0938"/><text fill="#000000" font-family="sans-serif" font-size="13" lengthAdjust="spacingAndGlyphs" textLength="22" x="483.5" y="300.1606">key</text><line style="stroke: #A80036; stroke-width: 1.0;" x1="638.5" x2="680.5" y1="334.3594" y2="334.3594"/><line style="stroke: #A80036; stroke-width: 1.0;" x1="680.5" x2="680.5" y1="334.3594" y2="347.3594"/><line style="stroke: #A80036; stroke-width: 1.0;" x1="639.5" x2="680.5" y1="347.3594" y2="347.3594"/><polygon fill="#A80036" points="649.5,343.3594,639.5,347.3594,649.5,351.3594,645.5,347.3594" style="stroke: #A80036; stroke-width: 1.0;"/><text fill="#000000" font-family="sans-serif" font-size="13" lengthAdjust="spacingAndGlyphs" textLength="124" x="645.5" y="329.2935">encrypt dataPacket</text><polygon fill="#A80036" points="487.5,372.3594,477.5,376.3594,487.5,380.3594,483.5,376.3594" style="stroke: #A80036; stroke-width: 1.0;"/><line style="stroke: #A80036; stroke-width: 1.0;" x1="481.5" x2="637.5" y1="376.3594" y2="376.3594"/><text fill="#000000" font-family="sans-serif" font-size="13" lengthAdjust="spacingAndGlyphs" textLength="138" x="493.5" y="371.4263">encryptedDataPacket</text><polygon fill="#A80036" points="204,401.4922,194,405.4922,204,409.4922,200,405.4922" style="stroke: #A80036; stroke-width: 1.0;"/><line style="stroke: #A80036; stroke-width: 1.0;" x1="198" x2="475.5" y1="405.4922" y2="405.4922"/><text fill="#000000" font-family="sans-serif" font-size="13" lengthAdjust="spacingAndGlyphs" textLength="138" x="210" y="400.5591">encryptedDataPacket</text><polygon fill="#A80036" points="42,430.625,32,434.625,42,438.625,38,434.625" style="stroke: #A80036; stroke-width: 1.0;"/><line style="stroke: #A80036; stroke-width: 1.0;" x1="36" x2="192" y1="434.625" y2="434.625"/><text fill="#000000" font-family="sans-serif" font-size="13" lengthAdjust="spacingAndGlyphs" textLength="138" x="48" y="429.6919">encryptedDataPacket</text></g></svg>