<?xml version="1.0" encoding="UTF-8" standalone="yes"?><svg xmlns="http://www.w3.org/2000/svg" xmlns:xlink="http://www.w3.org/1999/xlink" height="725px" style="width:530px;height:725px;" version="1.1" viewBox="0 0 530 725" width="530px"><defs><filter height="300%" id="f1" width="300%" x="-1" y="-1"><feGaussianBlur result="blurOut" stdDeviation="2.0"/><feColorMatrix in="blurOut" result="blurOut2" type="matrix" values="0 0 0 0 0 0 0 0 0 0 0 0 0 0 0 0 0 0 .4 0"/><feOffset dx="4.0" dy="4.0" in="blurOut2" result="blurOut3"/><feBlend in="SourceGraphic" in2="blurOut3" mode="normal"/></filter></defs><g><rect fill="#FFFFFF" filter="url(#f1)" height="613.5234" style="stroke: #A80036; stroke-width: 1.0;" width="10" x="16.5" y="48.2969"/><rect fill="#FFFFFF" filter="url(#f1)" height="570.6563" style="stroke: #A80036; stroke-width: 1.0;" width="10" x="278.5" y="107.2969"/><line style="stroke: #A80036; stroke-width: 1.0; stroke-dasharray: 5.0,5.0;" x1="21" x2="21" y1="38.2969" y2="686.9531"/><line style="stroke: #A80036; stroke-width: 1.0; stroke-dasharray: 5.0,5.0;" x1="283.5" x2="283.5" y1="38.2969" y2="686.9531"/><rect fill="#FEFECE" filter="url(#f1)" height="30.2969" style="stroke: #A80036; stroke-width: 1.5;" width="23" x="8" y="3"/><text fill="#000000" font-family="sans-serif" font-size="14" lengthAdjust="spacingAndGlyphs" textLength="9" x="15" y="22.9951">A</text><rect fill="#FEFECE" filter="url(#f1)" height="30.2969" style="stroke: #A80036; stroke-width: 1.5;" width="23" x="8" y="685.9531"/><text fill="#000000" font-family="sans-serif" font-size="14" lengthAdjust="spacingAndGlyphs" textLength="9" x="15" y="705.9482">A</text><rect fill="#FEFECE" filter="url(#f1)" height="30.2969" style="stroke: #A80036; stroke-width: 1.5;" width="24" x="269.5" y="3"/><text fill="#000000" font-family="sans-serif" font-size="14" lengthAdjust="spacingAndGlyphs" textLength="10" x="276.5" y="22.9951">B</text><rect fill="#FEFECE" filter="url(#f1)" height="30.2969" style="stroke: #A80036; stroke-width: 1.5;" width="24" x="269.5" y="685.9531"/><text fill="#000000" font-family="sans-serif" font-size="14" lengthAdjust="spacingAndGlyphs" textLength="10" x="276.5" y="705.9482">B</text><rect fill="#FFFFFF" filter="url(#f1)" height="613.5234" style="stroke: #A80036; stroke-width: 1.0;" width="10" x="16.5" y="48.2969"/><rect fill="#FFFFFF" filter="url(#f1)" height="570.6563" style="stroke: #A80036; stroke-width: 1.0;" width="10" x="278.5" y="107.2969"/><line style="stroke: #A80036; stroke-width: 1.0;" x1="26.5" x2="73.5" y1="94.6953" y2="94.6953"/><line style="stroke: #A80036; stroke-width: 1.0;" x1="73.5" x2="73.5" y1="94.6953" y2="107.6953"/><line style="stroke: #A80036; stroke-width: 1.0;" x1="32.5" x2="73.5" y1="107.6953" y2="107.6953"/><polygon fill="#A80036" points="42.5,103.6953,32.5,107.6953,42.5,111.6953,38.5,107.6953" style="stroke: #A80036; stroke-width: 1.0;"/><text fill="#000000" font-family="sans-serif" font-size="13" lengthAdjust="spacingAndGlyphs" textLength="182" x="38.5" y="59.3638">generate appropriately large</text><text fill="#000000" font-family="sans-serif" font-size="13" lengthAdjust="spacingAndGlyphs" textLength="230" x="42.5" y="74.4966">and randomly selected safe prime p</text><text fill="#000000" font-family="sans-serif" font-size="13" lengthAdjust="spacingAndGlyphs" textLength="150" x="42.5" y="89.6294">and a hash function H()</text><line style="stroke: #A80036; stroke-width: 1.0;" x1="288.5" x2="330.5" y1="172.0938" y2="172.0938"/><line style="stroke: #A80036; stroke-width: 1.0;" x1="330.5" x2="330.5" y1="172.0938" y2="185.0938"/><line style="stroke: #A80036; stroke-width: 1.0;" x1="289.5" x2="330.5" y1="185.0938" y2="185.0938"/><polygon fill="#A80036" points="299.5,181.0938,289.5,185.0938,299.5,189.0938,295.5,185.0938" style="stroke: #A80036; stroke-width: 1.0;"/><text fill="#000000" font-family="sans-serif" font-size="13" lengthAdjust="spacingAndGlyphs" textLength="182" x="295.5" y="136.7622">generate appropriately large</text><text fill="#000000" font-family="sans-serif" font-size="13" lengthAdjust="spacingAndGlyphs" textLength="230" x="299.5" y="151.895">and randomly selected safe prime p</text><text fill="#000000" font-family="sans-serif" font-size="13" lengthAdjust="spacingAndGlyphs" textLength="150" x="299.5" y="167.0278">and a hash function H()</text><polygon fill="#A80036" points="266.5,210.0938,276.5,214.0938,266.5,218.0938,270.5,214.0938" style="stroke: #A80036; stroke-width: 1.0;"/><line style="stroke: #A80036; stroke-width: 1.0;" x1="26.5" x2="272.5" y1="214.0938" y2="214.0938"/><text fill="#000000" font-family="sans-serif" font-size="13" lengthAdjust="spacingAndGlyphs" textLength="119" x="33.5" y="209.1606">shared password x</text><polygon fill="#A80036" points="37.5,239.2266,27.5,243.2266,37.5,247.2266,33.5,243.2266" style="stroke: #A80036; stroke-width: 1.0;"/><line style="stroke: #A80036; stroke-width: 1.0;" x1="31.5" x2="277.5" y1="243.2266" y2="243.2266"/><text fill="#000000" font-family="sans-serif" font-size="13" lengthAdjust="spacingAndGlyphs" textLength="149" x="43.5" y="238.2935">shared password x ACK</text><line style="stroke: #A80036; stroke-width: 1.0;" x1="26.5" x2="68.5" y1="272.4922" y2="272.4922"/><line style="stroke: #A80036; stroke-width: 1.0;" x1="68.5" x2="68.5" y1="272.4922" y2="285.4922"/><line style="stroke: #A80036; stroke-width: 1.0;" x1="27.5" x2="68.5" y1="285.4922" y2="285.4922"/><polygon fill="#A80036" points="37.5,281.4922,27.5,285.4922,37.5,289.4922,33.5,285.4922" style="stroke: #A80036; stroke-width: 1.0;"/><text fill="#000000" font-family="sans-serif" font-size="13" lengthAdjust="spacingAndGlyphs" textLength="163" x="33.5" y="267.4263">constructs g=H(x)²mod p</text><line style="stroke: #A80036; stroke-width: 1.0;" x1="288.5" x2="330.5" y1="314.625" y2="314.625"/><line style="stroke: #A80036; stroke-width: 1.0;" x1="330.5" x2="330.5" y1="314.625" y2="327.625"/><line style="stroke: #A80036; stroke-width: 1.0;" x1="289.5" x2="330.5" y1="327.625" y2="327.625"/><polygon fill="#A80036" points="299.5,323.625,289.5,327.625,299.5,331.625,295.5,327.625" style="stroke: #A80036; stroke-width: 1.0;"/><text fill="#000000" font-family="sans-serif" font-size="13" lengthAdjust="spacingAndGlyphs" textLength="163" x="295.5" y="309.5591">constructs g=H(x)²mod p</text><line style="stroke: #A80036; stroke-width: 1.0;" x1="26.5" x2="68.5" y1="356.7578" y2="356.7578"/><line style="stroke: #A80036; stroke-width: 1.0;" x1="68.5" x2="68.5" y1="356.7578" y2="369.7578"/><line style="stroke: #A80036; stroke-width: 1.0;" x1="27.5" x2="68.5" y1="369.7578" y2="369.7578"/><polygon fill="#A80036" points="37.5,365.7578,27.5,369.7578,37.5,373.7578,33.5,369.7578" style="stroke: #A80036; stroke-width: 1.0;"/><text fill="#000000" font-family="sans-serif" font-size="13" lengthAdjust="spacingAndGlyphs" textLength="212" x="33.5" y="351.6919">chooses secret random integer a</text><polygon fill="#A80036" points="266.5,394.7578,276.5,398.7578,266.5,402.7578,270.5,398.7578" style="stroke: #A80036; stroke-width: 1.0;"/><line style="stroke: #A80036; stroke-width: 1.0;" x1="26.5" x2="272.5" y1="398.7578" y2="398.7578"/><text fill="#000000" font-family="sans-serif" font-size="13" lengthAdjust="spacingAndGlyphs" textLength="114" x="33.5" y="393.8247">sends g^a mod p</text><line style="stroke: #A80036; stroke-width: 1.0;" x1="288.5" x2="330.5" y1="428.0234" y2="428.0234"/><line style="stroke: #A80036; stroke-width: 1.0;" x1="330.5" x2="330.5" y1="428.0234" y2="441.0234"/><line style="stroke: #A80036; stroke-width: 1.0;" x1="289.5" x2="330.5" y1="441.0234" y2="441.0234"/><polygon fill="#A80036" points="299.5,437.0234,289.5,441.0234,299.5,445.0234,295.5,441.0234" style="stroke: #A80036; stroke-width: 1.0;"/><text fill="#000000" font-family="sans-serif" font-size="13" lengthAdjust="spacingAndGlyphs" textLength="212" x="295.5" y="422.9575">chooses secret random integer b</text><polygon fill="#A80036" points="37.5,466.0234,27.5,470.0234,37.5,474.0234,33.5,470.0234" style="stroke: #A80036; stroke-width: 1.0;"/><line style="stroke: #A80036; stroke-width: 1.0;" x1="31.5" x2="277.5" y1="470.0234" y2="470.0234"/><text fill="#000000" font-family="sans-serif" font-size="13" lengthAdjust="spacingAndGlyphs" textLength="114" x="43.5" y="465.0903">sends g^b mod p</text><line style="stroke: #A80036; stroke-width: 1.0;" x1="26.5" x2="68.5" y1="514.4219" y2="514.4219"/><line style="stroke: #A80036; stroke-width: 1.0;" x1="68.5" x2="68.5" y1="514.4219" y2="527.4219"/><line style="stroke: #A80036; stroke-width: 1.0;" x1="27.5" x2="68.5" y1="527.4219" y2="527.4219"/><polygon fill="#A80036" points="37.5,523.4219,27.5,527.4219,37.5,531.4219,33.5,527.4219" style="stroke: #A80036; stroke-width: 1.0;"/><text fill="#000000" font-family="sans-serif" font-size="13" lengthAdjust="spacingAndGlyphs" textLength="141" x="33.5" y="494.2231">abort if received value</text><text fill="#000000" font-family="sans-serif" font-size="13" lengthAdjust="spacingAndGlyphs" textLength="154" x="37.5" y="509.356">is not in range of [2,p-2]</text><line style="stroke: #A80036; stroke-width: 1.0;" x1="288.5" x2="330.5" y1="571.6875" y2="571.6875"/><line style="stroke: #A80036; stroke-width: 1.0;" x1="330.5" x2="330.5" y1="571.6875" y2="584.6875"/><line style="stroke: #A80036; stroke-width: 1.0;" x1="289.5" x2="330.5" y1="584.6875" y2="584.6875"/><polygon fill="#A80036" points="299.5,580.6875,289.5,584.6875,299.5,588.6875,295.5,584.6875" style="stroke: #A80036; stroke-width: 1.0;"/><text fill="#000000" font-family="sans-serif" font-size="13" lengthAdjust="spacingAndGlyphs" textLength="141" x="295.5" y="551.4888">abort if received value</text><text fill="#000000" font-family="sans-serif" font-size="13" lengthAdjust="spacingAndGlyphs" textLength="154" x="299.5" y="566.6216">is not in range of [2,p-2]</text><line style="stroke: #A80036; stroke-width: 1.0;" x1="26.5" x2="68.5" y1="613.8203" y2="613.8203"/><line style="stroke: #A80036; stroke-width: 1.0;" x1="68.5" x2="68.5" y1="613.8203" y2="626.8203"/><line style="stroke: #A80036; stroke-width: 1.0;" x1="27.5" x2="68.5" y1="626.8203" y2="626.8203"/><polygon fill="#A80036" points="37.5,622.8203,27.5,626.8203,37.5,630.8203,33.5,626.8203" style="stroke: #A80036; stroke-width: 1.0;"/><text fill="#000000" font-family="sans-serif" font-size="13" lengthAdjust="spacingAndGlyphs" textLength="165" x="33.5" y="608.7544">K=(g^b mod p)^a mod p</text><line style="stroke: #A80036; stroke-width: 1.0;" x1="288.5" x2="330.5" y1="660.9531" y2="660.9531"/><line style="stroke: #A80036; stroke-width: 1.0;" x1="330.5" x2="330.5" y1="660.9531" y2="673.9531"/><line style="stroke: #A80036; stroke-width: 1.0;" x1="283.5" x2="330.5" y1="673.9531" y2="673.9531"/><polygon fill="#A80036" points="293.5,669.9531,283.5,673.9531,293.5,677.9531,289.5,673.9531" style="stroke: #A80036; stroke-width: 1.0;"/><text fill="#000000" font-family="sans-serif" font-size="13" lengthAdjust="spacingAndGlyphs" textLength="165" x="295.5" y="655.8872">K=(g^a mod p)^b mod p</text></g></svg>